<svg version="1.0" xmlns="http://www.w3.org/2000/svg" width="300" height="300" viewBox="35.26 36.239 1354.572 717.93"><path d="m734.779 96.769.294 60.432h14.692l.49-51.911.49-51.911 310.875-.294c248.093-.196 311.071 0 311.757.979.979 1.665.979 680.615 0 682.28-.686.979-63.664 1.175-311.757.979l-310.875-.294-.294-51.715-.196-51.617h-15.671v120.472h655.248l-.196-358.77-.294-358.672-327.428-.196-327.331-.292zM510.192 51.617c-5.583 4.799-30.657 25.563-55.534 46.23l-45.251 37.61v508.527l55.339 46.034c30.461 25.368 55.828 46.23 56.318 46.328.686.196.979-122.822.979-346.429 0-190.796-.392-346.821-.784-346.821s-5.387 3.82-11.068 8.521m-10.675 311.757v161.608h-67.582V364.059c0-88.542.294-161.314.686-161.608.294-.392 15.573-.686 33.791-.686h33.105zM169.444 182.862c-29.971 65.133-55.534 126.25-86.485 206.956C69.345 425.274 35.26 519.497 35.26 521.554c0 .294 14.79.392 32.909.294l33.007-.294 4.31-12.243c2.449-6.758 8.913-25.27 14.496-41.137l9.99-28.894 74.438-.294 74.438-.196 3.232 9.011c4.603 12.929 25.172 70.52 25.955 72.479.686 1.665 3.232 1.763 34.868 1.763 18.805 0 34.183-.098 34.183-.294 0-.686-19.589-55.632-25.759-72.185-31.734-85.603-63.468-164.742-89.325-222.823-13.125-29.285-14.104-31.538-18.609-41.137-1.959-4.31-4.505-9.696-5.485-12.047l-1.763-4.114h-60.432zm43.585 74.34c6.562 15.867 20.47 51.225 27.326 69.443 14.006 37.023 22.135 59.256 22.135 60.432 0 .49-25.955.784-57.787.784-45.544 0-57.787-.294-57.787-1.273 0-1.371 21.842-60.628 29.873-81 3.036-7.836 6.562-16.846 7.836-20.079s5.681-14.006 9.794-23.996 7.933-19.099 8.423-20.372c.392-1.175 1.273-2.155 1.763-2.155s4.212 8.227 8.423 18.218" fill="#FFFFFF"/><path d="M630.762 251.423c-17.63.881-51.421 6.073-69.932 10.676-5.289 1.273-9.892 2.351-9.99 2.351-.196 0-.392 57.689-.392 128.307v128.307h60.726l.196-106.955.294-107.053 8.325-1.175c13.222-1.861 35.064-3.036 43.585-2.253 22.919 2.155 35.456 11.655 41.92 31.832 4.701 14.594 4.799 16.748 5.289 103.527l.392 82.077h60.627V439.28c0-50.931-.392-85.505-1.077-91.382-2.84-26.935-8.815-44.761-20.177-60.628-13.81-19.295-38.688-32.126-69.149-35.456-8.423-.979-36.435-1.175-50.637-.392m174.635 6.366c.196.686 2.253 7.64 4.603 15.475 22.135 76.005 54.261 157.592 90.109 229.19l7.933 15.867-4.212 8.423c-4.799 9.892-13.614 21.94-19.001 26.249-11.362 8.913-19.785 11.459-38.1 11.362-11.362 0-15.279-.49-23.017-2.449-5.093-1.371-9.99-2.742-10.97-3.134-1.077-.392-1.763 0-2.155 1.175-.979 3.232-10.382 44.761-10.382 45.936 0 1.567 6.073 3.918 18.022 6.856 7.933 2.057 13.222 2.644 26.249 3.036 30.852.979 50.441-4.212 69.247-18.316 20.96-15.867 33.889-36.435 56.71-90.794 31.146-73.85 57.787-151.324 81.49-236.34 1.763-6.17 3.428-11.851 3.624-12.537.392-.881-6.268-1.175-31.146-1.175h-31.734l-5.191 20.764c-4.603 18.218-10.186 39.472-18.316 69.345-9.305 34.183-30.461 100.785-32.713 103.135-1.469 1.469-24.584-57.591-37.121-94.81-11.557-34.476-25.955-83.057-28.11-94.81l-.686-3.624h-32.811c-25.857 0-32.713.294-32.322 1.175m270.718 0c.392.686 11.459 16.944 24.682 36.044 24.78 36.044 54.261 78.845 58.865 85.701l2.742 3.918-7.836 10.284c-18.609 24.388-46.23 64.447-63.272 91.578-9.011 14.398-19.785 33.595-19.785 35.064 0 .392 14.006.686 31.146.686h31.146l1.763-3.722c8.423-17.826 46.622-78.453 58.081-92.166l2.84-3.33 7.444 10.284c16.455 22.723 43.683 65.819 51.323 81.392l3.722 7.542h33.105c31.048 0 33.007-.098 32.42-1.665-1.175-2.938-12.831-23.507-19.491-34.281-13.614-22.135-35.26-53.086-59.844-85.799-7.15-9.501-13.027-17.63-13.027-17.924 0-.588 9.794-14.985 23.605-34.476 4.016-5.779 19.393-27.914 34.183-49.168 14.692-21.254 27.131-39.276 27.718-39.961.686-.881-5.583-1.175-31.048-1.175h-31.93l-11.068 16.846c-6.073 9.305-13.125 20.274-15.671 24.29-13.81 21.646-28.698 43.977-29.481 44.075-.784.196-7.444-9.892-38.492-57.983l-17.434-27.131h-33.595c-26.641-.098-33.497.196-32.811 1.077" fill="#FFFFFF"/></svg>