<svg xmlns="http://www.w3.org/2000/svg" viewBox="218.298 415.041 400 202.305" width="400" height="202.305"><path d="m391.426 415.075 1.141-.004q1.56-.004 3.123.002 1.701.002 3.4-.002 2.978-.004 5.958 0 4.43.004 8.858-.002 7.91-.006 15.822-.002 6.923.004 13.846.002h4.655q17.486-.002 34.971.004 15.536.006 31.073 0a50003 50003 0 0 1 38.626-.002h.926q6.919.002 13.838-.002 7.867-.004 15.733.002 4.404.004 8.808 0 2.941-.002 5.88.002 1.677.004 3.352 0 1.805-.002 3.612.004l1.05-.006c3.393.026 6.28.935 8.817 3.253 3.062 3.231 3.285 7.012 3.274 11.249l.002.926v3.071l.002 2.225.002 6.112.002 5.917q.004 6.795.004 13.593l.002 13.519v.76l.002 21.133v7.274q0 12.615.006 25.23a51293 51293 0 0 1 .006 31.374v.751l.004 11.976q.004 6.019 0 12.035-.002 3.259.002 6.518.004 2.984 0 5.969l.002 2.158q.002 1.467-.002 2.937l.004.844c-.024 4.01-.805 7.425-3.547 10.44-2.067 1.781-4.685 2.891-7.408 2.893l-.967.002-1.063-.002-1.134.002-3.127.002-3.398.004-6.746.004-8.079.006q-9.762.009-19.527.013l-9.234.004-33.592.013h-.993l-5.986.002q-16.045.004-32.09.019a38589 38589 0 0 1-37.641.019h-.926q-7.38 0-14.757.013-7.417.009-14.833.004-4.406-.002-8.812.006-2.943.006-5.889 0-1.677-.004-3.354.002-1.809.006-3.616-.004l-1.045.011c-3.095-.028-6.343-.814-8.611-3.054-2.634-3.179-3.354-5.819-3.3-9.879l.004-1.175q.011-1.846.03-3.694l.013-2.513q.015-3.071.048-6.144h10.26l.32 15.71h218.019V425.771H389.227l-.32 15.71h-10.26a1333 1333 0 0 1-.071-7.202q-.009-1.223-.026-2.448a385 385 0 0 1-.028-3.532l-.019-1.093c0-3.45.876-6.624 3.352-9.131 2.926-2.428 5.845-3.03 9.572-3.006"/><path d="M437.319 445.014c.426.697.426.697.749 1.632l.379 1.067.392 1.173.426 1.216a426 426 0 0 1 1.128 3.285q.586 1.716 1.186 3.428l1.673 4.833a921 921 0 0 0 3.497 9.938l1.537 4.32.604 1.699 2.207 6.209 1.599 4.497q1.508 4.24 3.01 8.481l1.426 4.023.682 1.924.944 2.662.281.796.262.736.225.636c.255.651.556 1.266.879 1.887a8139 8139 0 0 0 9.78-25.489 8083 8083 0 0 1 7.304-19.083c2.731-7.122 2.731-7.122 4.079-10.254 1.234.203 2.288.569 3.432 1.063l1.089.467 1.164.504 1.201.517q1.576.677 3.149 1.359l3.218 1.387q3.153 1.357 6.304 2.72c-.71 2.519-1.584 4.958-2.504 7.408l-.463 1.24-1.257 3.354q-.673 1.792-1.342 3.586-1.703 4.551-3.411 9.1l-.277.738-1.887 5.027-.268.714-.805 2.145-.268.714-1.346 3.584a5826 5826 0 0 0-7.678 20.577l-2.625 7.072-.249.671q-1.305 3.515-2.603 7.031c-3.283 8.897-6.798 17.703-10.31 26.513a2497 2497 0 0 0-3.326 8.384l-.429 1.084-1.597 4.049-1.065 2.701-.307.781a132 132 0 0 1-2.151 5.042h-21.481c1.082-3.608 1.082-3.608 1.567-4.837l.333-.848.355-.892.381-.965 1.231-3.119.859-2.181 1.324-3.363a2411 2411 0 0 0 3.326-8.479l2.149-5.501.649-1.664a165 165 0 0 1 1.714-4.233l.366-.881a121 121 0 0 1 .703-1.651c1.112-2.681.309-4.508-.651-7.127l-.335-.928-.725-1.998-1.166-3.212-1.223-3.376a2671 2671 0 0 1-3.889-10.806l-1.524-4.255-1.151-3.214-3.432-9.574-1.902-5.309-.762-2.123-1.904-5.311-9.687-27.022-.357-.998a1677 1677 0 0 0-1.84-5.112l-.718-1.991q-.405-1.123-.814-2.244l-.342-.95-.29-.796c-.201-.667-.201-.667-.201-1.627 10.955-1.645 10.955-1.645 16.272-2.277l.868-.104.742-.087c.734-.089.734-.089 1.508-.292.944-.149 1.506-.115 2.413.193m-66.336 16.264.729-.013c5.378-.071 10.425.002 15.588 1.703l.634.201c8.059 2.634 14.394 8.278 18.261 15.72 4.467 8.94 4.33 18.261 4.287 28.028q-.009 2.439-.009 4.88-.004 4.603-.019 9.206-.015 5.248-.022 10.496-.017 10.782-.048 21.561h-21.481l-.009-5.471q-.017-8.953-.05-17.906a4538 4538 0 0 1-.028-10.855q-.006-4.733-.026-9.464a1106 1106 0 0 1-.011-5.008 708 708 0 0 0-.015-4.72l-.002-1.727c.013-4.737-.669-8.663-3.705-12.496-2.229-2.229-5.503-3.766-8.657-3.848l-1.175-.061c-4.311-.162-7.765.881-10.99 3.835-3.802 4.008-3.963 8.977-3.969 14.18l-.011 1.755-.017 4.744-.022 4.965q-.022 4.696-.037 9.392l-.043 10.695q-.048 10.996-.087 21.992h-21.481q-.043-11.392-.067-22.786-.009-5.291-.03-10.583-.019-4.618-.024-9.234-.002-2.439-.015-4.88c-.074-13.175.591-25.288 10.295-35.297 1.956-1.946 4.129-3.38 6.512-4.75l.902-.537c4.467-2.458 9.771-3.64 14.84-3.718m159.156 1.692c2.4 1.922 3.774 4.012 5.166 6.743q.662 1.294 1.337 2.578l.684 1.307c4.603 9.384 4.603 9.384 10.925 17.586 3.008-1.242 4.543-5.627 5.98-8.382l1.145-2.179a197 197 0 0 0 3.558-7.062c1.902-3.984 4.198-7.101 8.313-9.001 1.619-.565 3.313-.413 5.01-.409l1.125-.015c2.491-.002 4.188.156 6.168 1.759 2.5 3.025 3.807 6.551 3.753 10.464-.294 2.88-1.878 5.246-3.454 7.6-.909 1.37-1.669 2.77-2.404 4.24-2.636 5.157-6.016 10.314-9.912 14.606-3.393 3.61-3.393 3.61-5.187 7.903.167 1.885.66 3.142 1.712 4.703l.431.662c1.485 2.249 3.106 4.393 4.746 6.527q1.24 1.627 2.458 3.27a161 161 0 0 0 2.759 3.618c3.147 3.986 5.387 7.15 4.895 12.353-.846 3.37-2.363 7.059-5.129 9.297-2.246 1.301-4.06 1.675-6.633 1.703l-.848.028c-2.761.026-4.672-.9-6.705-2.74-1.158-1.223-2.084-2.61-3.028-4.002l-.675-.983a149 149 0 0 1-5.428-8.696 225 225 0 0 0-1.853-3.108l-.571-.952a9.7 9.7 0 0 0-1.833-2.095c-1.584-.264-2.5-.173-3.826.742-1.634 1.359-2.878 3.049-4.188 4.709-4.636 5.653-9.583 11.236-15.389 15.71l-.686.567c-2.023 1.634-4.227 2.545-6.863 2.454-2.896-.496-5.856-1.95-7.583-4.343-1.928-3.112-2.359-6.49-1.714-10.096 1.071-3.69 4.302-6.415 7.12-8.836a78 78 0 0 0 3.943-3.742l.706-.706 1.465-1.467q1.112-1.115 2.227-2.225l1.433-1.435.662-.66a80 80 0 0 0 4.095-4.46l.816-.944c1.601-1.907 2.772-3.367 3.212-5.85-.504-3.413-2.891-6.343-4.802-9.135-15.346-22.488-15.346-22.488-14.294-30.242.874-2.952 2.948-5.796 5.508-7.525 3.484-1.835 8.284-1.881 11.647.154m-246.389.322.671.303c5.278 2.433 9.146 5.722 11.593 11.119 1.651 4.646 1.66 9.46 1.632 14.327v2.106q0 2.835-.013 5.666-.009 2.971-.009 5.941-.004 5.614-.019 11.228-.015 6.395-.022 12.792-.017 13.147-.048 26.292H276.05l-.019-6.142-.074-20.036-.043-12.154q-.015-5.296-.039-10.589l-.019-5.609q-.006-2.638-.019-5.274l-.006-1.941q-.002-1.32-.013-2.64l.002-.786c.039-1.387.039-1.387-.731-2.478-.861-.087-1.697-.028-2.565 0l-.253.654a80 80 0 0 1-1.463 3.307l-.32.699-.688 1.493-1.855 4.027-.383.833a3205 3205 0 0 0-3.714 8.103l-2.543 5.571-2.545 5.571-.32.699q-2.318 5.071-4.649 10.137l-3.406 7.417-2.008 4.38-.612 1.333c-2.047 4.458-4.025 8.942-6.019 13.426h-23.405c1.84-4.415 1.84-4.415 2.746-6.315l.307-.647.643-1.357q.859-1.809 1.712-3.618l.344-.729a712 712 0 0 0 2.965-6.369l.463-1.006.926-2.013q1.264-2.738 2.539-5.477l.528-1.138 1.056-2.275 2.482-5.341.506-1.091 3.157-6.808c4.69-10.126 4.69-10.126 6.997-15.065l.273-.584.271-.58a4036 4036 0 0 0 3.705-7.955l.517-1.108a576 576 0 0 0 2.565-5.59l.513-1.128q.476-1.047.946-2.099c2.27-4.993 5.04-9.118 10.288-11.223 6.144-2.246 12.885-3.047 18.958-.249m18.597 72.458h31.421c0 5.772-.115 11.546-.32 17.313h-31.099zm0-82.718h31.421c0 5.666-.024 11.336-.32 16.993h-31.099zm0 24.686h31.099v16.993h-31.099z"/></svg>