<svg xmlns="http://www.w3.org/2000/svg" viewBox="100.87 191.78 184.83 93.48">
    <path
        d="m180.868 191.796.527-.002q.721-.002 1.443.001.786.001 1.571-.001 1.376-.002 2.753 0 2.047.002 4.093-.001 3.655-.003 7.311-.001 3.199.002 6.398.001h2.151q8.08-.001 16.159.002 7.179.003 14.358 0a23105 23105 0 0 1 17.848-.001h.428q3.197.001 6.394-.001 3.635-.002 7.27.001 2.035.002 4.07 0 1.359-.001 2.717.001.775.002 1.549 0 .834-.001 1.669.002l.485-.003c1.568.012 2.902.432 4.074 1.503 1.415 1.493 1.518 3.24 1.513 5.198l.001.428v1.419l.001 1.028.001 2.824.001 2.734q.002 3.14.002 6.281l.001 6.247v.351l.001 9.765v3.361q0 5.829.003 11.658a23701 23701 0 0 1 .003 14.497v.347l.002 5.534q.002 2.781 0 5.561-.001 1.506.001 3.012.002 1.379 0 2.758l.001.997q.001.678-.001 1.357l.002.39c-.011 1.853-.372 3.431-1.639 4.824-.955.823-2.165 1.336-3.423 1.337l-.447.001-.491-.001-.524.001-1.445.001-1.57.002-3.117.002-3.733.003q-4.511.004-9.023.006l-4.267.002-15.522.006h-.459l-2.766.001q-7.414.002-14.828.009a17831 17831 0 0 1-17.393.009h-.428q-3.41 0-6.819.006-3.427.004-6.854.002-2.036-.001-4.072.003-1.36.003-2.721 0-.775-.002-1.55.001-.836.003-1.671-.002l-.483.005c-1.43-.013-2.931-.376-3.979-1.411-1.217-1.469-1.55-2.689-1.525-4.565l.002-.543q.005-.853.014-1.707l.006-1.161q.007-1.419.022-2.839h4.741l.148 7.259h100.741v-83.556H179.852l-.148 7.259h-4.741a616 616 0 0 1-.033-3.328q-.004-.565-.012-1.131a178 178 0 0 1-.013-1.632l-.009-.505c0-1.594.405-3.061 1.549-4.219 1.352-1.122 2.701-1.4 4.423-1.389" />
    <path
        d="M202.074 205.63c.197.322.197.322.346.754l.175.493.181.542.197.562a197 197 0 0 1 .521 1.518q.271.793.548 1.584l.773 2.233c.528 1.534 1.07 3.064 1.616 4.592l.71 1.996.279.785 1.02 2.869.739 2.078q.697 1.959 1.391 3.919l.659 1.859.315.889.436 1.23.13.368.121.34.104.294c.118.301.257.585.406.872a3761 3761 0 0 0 4.519-11.778 3735 3735 0 0 1 3.375-8.818c1.262-3.291 1.262-3.291 1.885-4.738.57.094 1.057.263 1.586.491l.503.216.538.233.555.239q.728.313 1.455.628l1.487.641q1.457.627 2.913 1.257c-.328 1.164-.732 2.291-1.157 3.423l-.214.573-.581 1.55q-.311.828-.62 1.657-.787 2.103-1.576 4.205l-.128.341-.872 2.323-.124.33-.372.991-.124.33-.622 1.656a2692 2692 0 0 0-3.548 9.508l-1.213 3.268-.115.31q-.603 1.624-1.203 3.249c-1.517 4.111-3.141 8.18-4.764 12.251a1154 1154 0 0 0-1.537 3.874l-.198.501-.738 1.871-.492 1.248-.142.361a61 61 0 0 1-.994 2.33h-9.926c.5-1.667.5-1.667.724-2.235l.154-.392.164-.412.176-.446.569-1.441.397-1.008.612-1.554a1114 1114 0 0 0 1.537-3.918l.993-2.542.3-.769a76 76 0 0 1 .792-1.956l.169-.407a56 56 0 0 1 .325-.763c.514-1.239.143-2.083-.301-3.293l-.155-.429-.335-.923-.539-1.484-.565-1.56a1234 1234 0 0 1-1.797-4.993l-.704-1.966-.532-1.485-1.586-4.424-.879-2.453-.352-.981-.88-2.454-4.476-12.486-.165-.461a775 775 0 0 0-.85-2.362l-.332-.92q-.187-.519-.376-1.037l-.158-.439-.134-.368c-.093-.308-.093-.308-.093-.752 5.062-.76 5.062-.76 7.519-1.052l.401-.048.343-.04c.339-.041.339-.041.697-.135.436-.069.696-.053 1.115.089m-30.652 7.515.337-.006c2.485-.033 4.817.001 7.203.787l.293.093c3.724 1.217 6.651 3.825 8.438 7.264 2.064 4.131 2.001 8.438 1.981 12.951q-.004 1.127-.004 2.255-.002 2.127-.009 4.254-.007 2.425-.01 4.85-.008 4.982-.022 9.963h-9.926l-.004-2.528q-.008-4.137-.023-8.274a2097 2097 0 0 1-.013-5.016q-.003-2.187-.012-4.373a511 511 0 0 1-.005-2.314 327 327 0 0 0-.007-2.181l-.001-.798c.006-2.189-.309-4.003-1.712-5.774-1.03-1.03-2.543-1.74-4-1.778l-.543-.028c-1.992-.075-3.588.407-5.078 1.772-1.757 1.852-1.831 4.148-1.834 6.552l-.005.811-.008 2.192-.01 2.294q-.01 2.17-.017 4.34l-.02 4.942q-.022 5.081-.04 10.162h-9.926q-.02-5.264-.031-10.529-.004-2.445-.014-4.89-.009-2.134-.011-4.267-.001-1.127-.007-2.255c-.034-6.088.273-11.685 4.757-16.31.904-.899 1.908-1.562 3.009-2.195l.417-.248c2.064-1.136 4.515-1.682 6.857-1.718m73.542.782c1.109.888 1.744 1.854 2.387 3.116q.306.598.618 1.191l.316.604c2.127 4.336 2.127 4.336 5.048 8.126 1.39-.574 2.099-2.6 2.763-3.873l.529-1.007a91 91 0 0 0 1.644-3.263c.879-1.841 1.94-3.281 3.841-4.159.748-.261 1.531-.191 2.315-.189l.52-.007c1.151-.001 1.935.072 2.85.813 1.155 1.398 1.759 3.027 1.734 4.835-.136 1.331-.868 2.424-1.596 3.512-.42.633-.771 1.28-1.111 1.959-1.218 2.383-2.78 4.766-4.58 6.749-1.568 1.668-1.568 1.668-2.397 3.652.077.871.305 1.452.791 2.173l.199.306c.686 1.039 1.435 2.03 2.193 3.016q.573.752 1.136 1.511c.419.562.84 1.122 1.275 1.672 1.454 1.842 2.489 3.304 2.262 5.708-.391 1.557-1.092 3.262-2.37 4.296-1.038.601-1.876.774-3.065.787l-.392.013c-1.276.012-2.159-.416-3.098-1.266-.535-.565-.963-1.206-1.399-1.849l-.312-.454a69 69 0 0 1-2.508-4.018 104 104 0 0 0-.856-1.436l-.264-.44a4.5 4.5 0 0 0-.847-.968c-.732-.122-1.155-.08-1.768.343-.755.628-1.33 1.409-1.935 2.176-2.142 2.612-4.428 5.192-7.111 7.259l-.317.262c-.935.755-1.953 1.176-3.171 1.134-1.338-.229-2.706-.901-3.504-2.007-.891-1.438-1.09-2.999-.792-4.665.495-1.705 1.988-2.964 3.29-4.083a36 36 0 0 0 1.822-1.729l.326-.326.677-.678q.514-.515 1.029-1.028l.662-.663.306-.305c.66-.663 1.284-1.35 1.892-2.061l.377-.436c.74-.881 1.281-1.556 1.484-2.703-.233-1.577-1.336-2.931-2.219-4.221-7.091-10.391-7.091-10.391-6.605-13.974.404-1.364 1.362-2.678 2.545-3.477 1.61-.848 3.828-.869 5.382.071m-113.85.149.31.14c2.439 1.124 4.226 2.644 5.357 5.138.763 2.147.767 4.371.754 6.62v.973q0 1.31-.006 2.618-.004 1.373-.004 2.745-.002 2.594-.009 5.188-.007 2.955-.01 5.911-.008 6.075-.022 12.149h-9.926l-.009-2.838-.034-9.258-.02-5.616q-.007-2.447-.018-4.893l-.009-2.592q-.003-1.219-.009-2.437l-.003-.897q-.001-.61-.006-1.22l.001-.363c.018-.641.018-.641-.338-1.145-.398-.04-.784-.013-1.185 0l-.117.302a37 37 0 0 1-.676 1.528l-.148.323-.318.69-.857 1.861-.177.385a1481 1481 0 0 0-1.716 3.744l-1.175 2.574-1.176 2.574-.148.323q-1.071 2.343-2.148 4.684l-1.574 3.427-.928 2.024-.283.616c-.946 2.06-1.86 4.132-2.781 6.204h-10.815c.85-2.04.85-2.04 1.269-2.918l.142-.299.297-.627q.397-.836.791-1.672l.159-.337a329 329 0 0 0 1.37-2.943l.214-.465.428-.93q.584-1.265 1.173-2.531l.244-.526.488-1.051 1.147-2.468.234-.504 1.459-3.146c2.167-4.679 2.167-4.679 3.233-6.961l.126-.27.125-.268a1865 1865 0 0 0 1.712-3.676l.239-.512a266 266 0 0 0 1.185-2.583l.237-.521q.22-.484.437-.97c1.049-2.307 2.329-4.213 4.754-5.186 2.839-1.038 5.954-1.408 8.76-.115m8.593 33.481h14.519c0 2.667-.053 5.335-.148 8h-14.37zm0-38.222h14.519c0 2.618-.011 5.238-.148 7.852h-14.37zm0 11.407h14.37v7.852h-14.37z" />
</svg>